<svg xmlns="http://www.w3.org/2000/svg" width="87" height="87" viewBox="0 0 87 87">
  <title>actividad</title>
  <g>
    <circle cx="43.5" cy="43.5" r="42.5" style="fill: #1ccfc9;stroke: #323c64;stroke-miterlimit: 10;stroke-width: 2px"/>
    <path d="M68.6,25.27H54.9a3.09,3.09,0,0,1-3.08-3.08v-.63a3.46,3.46,0,0,1,.58-1.48,6.56,6.56,0,1,0-12.17,0,3.46,3.46,0,0,1,.45,1.49v.63a3.09,3.09,0,0,1-3.08,3.08H24.82V39a3.09,3.09,0,0,1-3.08,3.08h-.63a3.46,3.46,0,0,1-1.48-.58,6.56,6.56,0,1,0,0,12.17,3.46,3.46,0,0,1,1.49-.45h.63a3.09,3.09,0,0,1,3.08,3.08V69.4H37.59a3.09,3.09,0,0,0,3.08-3.08V65.7a3.46,3.46,0,0,0-.45-1.49,6.56,6.56,0,1,1,12.17,0,3.46,3.46,0,0,0-.58,1.48v.63A3.09,3.09,0,0,0,54.9,69.4H68.6V56.28a3.09,3.09,0,0,0-3.08-3.08h-.63a3.46,3.46,0,0,0-1.49.45,6.56,6.56,0,1,1,0-12.17,3.46,3.46,0,0,0,1.48.58h.63A3.09,3.09,0,0,0,68.6,39Z" style="fill: #fff;stroke: #323c64;stroke-linecap: round;stroke-linejoin: round;stroke-width: 1.5px"/>
  </g>
</svg>
