<svg xmlns="http://www.w3.org/2000/svg" width="87" height="87" viewBox="0 0 87 87">
  <title>download</title>
  <g>
    <circle cx="43.5" cy="43.5" r="42.5" style="fill: #1ccfc9;stroke: #323c64;stroke-miterlimit: 10;stroke-width: 2px"/>
    <g>
      <g>
        <path d="M65.5,30.12V70a2.11,2.11,0,0,1-2.11,2.11H23.61A2.11,2.11,0,0,1,21.5,70V17a2.11,2.11,0,0,1,2.11-2.11H50.43a2.11,2.11,0,0,1,1.5.63l13,13.14A2.11,2.11,0,0,1,65.5,30.12Z" style="fill: #fff;stroke: #323c64;stroke-linecap: round;stroke-linejoin: round;stroke-width: 1.5px"/>
        <path d="M65.5,29.26H55.08a3.77,3.77,0,0,1-3.77-3.77V14.88Z" style="fill: #fff;stroke: #323c64;stroke-linecap: round;stroke-linejoin: round;stroke-width: 1.5px"/>
      </g>
      <path d="M52.9,53.47H50.46a1,1,0,0,1-1-1V37.32a1,1,0,0,0-1-1H38.57a1,1,0,0,0-1,1V52.2a1,1,0,0,1-1,1H34.1a1,1,0,0,0-.7,1.66l9.31,9.54a1,1,0,0,0,1.38,0l9.48-9.25A1,1,0,0,0,52.9,53.47Z" style="fill: #323c64"/>
    </g>
  </g>
</svg>
