<svg xmlns="http://www.w3.org/2000/svg" width="74" height="88" viewBox="0 0 74 88">
  <defs>
    <style>
      .a {
        fill: #1ccfc9;
      }

      .b {
        fill: #323c64;
      }
    </style>
  </defs>
  <title>escudo</title>
  <g>
    <path class="a" d="M74,19.07c-1,16.78-3.78,32.21-12.12,46.11a63.85,63.85,0,0,1-22.24,22,4.75,4.75,0,0,1-5.51-.08C19,78,9.48,64.68,4.45,47.84A112.73,112.73,0,0,1,0,20.36c-.14-3.27,1-4.41,4.17-4.8,4.44-.54,8.27-2.67,12.06-4.88C21.62,7.54,27,4.45,32.42,1.32a8.55,8.55,0,0,1,9.21.05c5.1,3,10.22,5.88,15.31,8.87,4.37,2.56,8.71,5.07,13.93,5.43A3.47,3.47,0,0,1,74,19.07Z"/>
    <g>
      <g>
        <path class="b" d="M24.69,34.63H37.8v3.55H33.24V55.1h-4V38.18H24.69Z"/>
        <path class="b" d="M45.86,43v5c0,.95,0,1.71.07,2.27a3.48,3.48,0,0,0,.31,1.3,1.06,1.06,0,0,0,.69.56,4.94,4.94,0,0,0,1.22.12v2.44a3.75,3.75,0,0,1-.5.21,3.49,3.49,0,0,1-.54.15,3.36,3.36,0,0,1-.63.06,5.59,5.59,0,0,1-1.3-.19,3.72,3.72,0,0,1-1.4-.76,4.82,4.82,0,0,1-1.13-1.55A6.12,6.12,0,0,1,42.18,50V43H39.86V39.74h2.32V34.63h3.68v5.11h3.23L48.62,43Z"/>
      </g>
      <g>
        <path class="b" d="M47.46,24a21.06,21.06,0,0,0-2-.94L45,24.35a18.8,18.8,0,0,1,1.87.89Z"/>
        <path class="b" d="M51.11,26.47c-.56-.47-1.16-.91-1.76-1.32l-.76,1.15a19.89,19.89,0,0,1,1.66,1.24Z"/>
        <path class="b" d="M43.41,22.34c-.69-.21-1.41-.39-2.12-.53L41,23.16a19.3,19.3,0,0,1,2,.5Z"/>
        <path class="b" d="M54.22,29.59c-.47-.57-1-1.12-1.48-1.64l-1,1c.49.49.95,1,1.39,1.54Z"/>
        <path class="b" d="M57.87,41.83l1.36-.14c-.08-.73-.19-1.47-.33-2.19l-1.34.27A20.47,20.47,0,0,1,57.87,41.83Z"/>
        <path class="b" d="M56.67,33.26c-.35-.64-.73-1.28-1.14-1.89l-1.13.77c.38.57.74,1.17,1.07,1.78Z"/>
        <path class="b" d="M16.12,46.13l-1.35.13c.07.73.18,1.47.32,2.19l1.34-.27A20.28,20.28,0,0,1,16.12,46.13Z"/>
        <path class="b" d="M57.06,37.75l1.3-.4a21.63,21.63,0,0,0-.75-2.09l-1.25.54C56.62,36.43,56.86,37.09,57.06,37.75Z"/>
        <path class="b" d="M30.54,65.65c.7.21,1.41.39,2.13.53l.26-1.35a20.15,20.15,0,0,1-2-.5Z"/>
        <path class="b" d="M26.49,64c.65.35,1.31.66,2,.95L29,63.63a17.64,17.64,0,0,1-1.86-.89Z"/>
        <path class="b" d="M22.85,61.5c.57.47,1.16.91,1.76,1.32l.76-1.15a18.22,18.22,0,0,1-1.65-1.24Z"/>
        <path class="b" d="M17.31,54.69c.35.65.73,1.29,1.13,1.9l1.13-.76c-.38-.58-.74-1.18-1.06-1.79Z"/>
        <path class="b" d="M16.93,50.2l-1.3.41c.21.7.46,1.4.74,2.08l1.26-.53A19.89,19.89,0,0,1,16.93,50.2Z"/>
        <path class="b" d="M19.75,58.37c.47.57,1,1.12,1.48,1.64l1-1c-.49-.49-1-1-1.39-1.54Z"/>
        <path class="b" d="M37,22.77c.66,0,1.33,0,2,.09l.13-1.37c-.7-.07-1.41-.1-2.12-.1v-.34A22.79,22.79,0,0,0,14.63,40.21a2.13,2.13,0,0,0-.88.56,2.26,2.26,0,0,0,.05,3.17,2.19,2.19,0,0,0,3.13-.06,2.26,2.26,0,0,0-.05-3.17l-.23-.18A20.75,20.75,0,0,1,37,23.11Z"/>
        <path class="b" d="M60.2,44.05a2.19,2.19,0,0,0-3.13.06,2.25,2.25,0,0,0,0,3.16,2.11,2.11,0,0,0,.23.19A20.74,20.74,0,0,1,37,64.89v.34a19.57,19.57,0,0,1-2-.1l-.13,1.37c.71.07,1.44.11,2.16.11V67A22.79,22.79,0,0,0,59.37,47.77a2.22,2.22,0,0,0,.88-.55A2.26,2.26,0,0,0,60.2,44.05Z"/>
      </g>
    </g>
  </g>
</svg>
