<svg xmlns="http://www.w3.org/2000/svg" width="125" height="146.88" viewBox="0 0 125 146.88">
  <defs>
    <style>
      .a {
        fill: #1ccfc9;
      }

      .b {
        fill: #323c64;
      }
    </style>
  </defs>
  <title>escudo</title>
  <g>
    <path class="a" d="M125,31.83c-1.64,28-6.39,53.77-20.48,77C95.15,124.22,82.45,136.25,67,145.48c-3.34,2-6.07,1.8-9.32-.13C32.15,130.22,16,108,7.51,79.85A186.24,186.24,0,0,1,0,34c-.24-5.46,1.61-7.36,7-8,7.5-.9,14-4.46,20.37-8.15C36.52,12.58,45.66,7.42,54.76,2.2,60-.8,65.13-.7,70.31,2.29c8.62,5,17.28,9.81,25.88,14.8,7.37,4.27,14.71,8.46,23.53,9.07A5.79,5.79,0,0,1,125,31.83Z"/>
    <g>
      <g>
        <path class="b" d="M41.7,57.8H63.85v5.93h-7.7V92H49.4V63.73H41.7Z"/>
        <path class="b" d="M77.46,71.72V80.1c0,1.59,0,2.85.13,3.8a5.68,5.68,0,0,0,.52,2.16,1.78,1.78,0,0,0,1.17.94,8.59,8.59,0,0,0,2.06.2v4.07a5.83,5.83,0,0,1-.85.35,5.75,5.75,0,0,1-.92.25,5.29,5.29,0,0,1-1.06.1,9.11,9.11,0,0,1-2.19-.32A6.07,6.07,0,0,1,74,90.38a7.82,7.82,0,0,1-1.91-2.58,10,10,0,0,1-.8-4.33V71.72H67.33V66.34h3.92V57.8h6.21v8.54h5.47l-.8,5.38Z"/>
      </g>
      <g>
        <path class="b" d="M80.18,40.09c-1.09-.58-2.22-1.1-3.35-1.57L76,40.64c1.07.44,2.13.94,3.15,1.48Z"/>
        <path class="b" d="M86.34,44.18c-1-.78-2-1.51-3-2.19L82.08,43.9A33.62,33.62,0,0,1,84.88,46Z"/>
        <path class="b" d="M73.34,37.28a37,37,0,0,0-3.6-.88l-.44,2.26c1.13.22,2.27.5,3.38.83Z"/>
        <path class="b" d="M91.58,49.39a35.82,35.82,0,0,0-2.49-2.73l-1.62,1.63c.82.81,1.6,1.68,2.34,2.57Z"/>
        <path class="b" d="M97.76,69.82l2.28-.23c-.12-1.23-.31-2.46-.55-3.66l-2.25.45C97.46,67.51,97.64,68.67,97.76,69.82Z"/>
        <path class="b" d="M95.72,55.52a36.6,36.6,0,0,0-1.92-3.17l-1.9,1.29c.64,1,1.25,2,1.8,3Z"/>
        <path class="b" d="M27.24,77,25,77.22c.12,1.22.3,2.45.54,3.66l2.26-.45A33.57,33.57,0,0,1,27.24,77Z"/>
        <path class="b" d="M96.38,63l2.2-.68c-.36-1.17-.79-2.35-1.26-3.48l-2.12.89C95.64,60.81,96,61.91,96.38,63Z"/>
        <path class="b" d="M51.59,109.58c1.18.35,2.38.65,3.59.89l.45-2.26c-1.14-.22-2.27-.5-3.38-.83Z"/>
        <path class="b" d="M44.75,106.76c1.09.57,2.21,1.11,3.35,1.58l.88-2.13a34.64,34.64,0,0,1-3.14-1.48Z"/>
        <path class="b" d="M38.6,102.65c.95.78,2,1.52,3,2.2l1.27-1.91c-1-.64-1.9-1.34-2.79-2.07Z"/>
        <path class="b" d="M29.24,91.29c.58,1.08,1.23,2.15,1.91,3.17l1.91-1.28a34.56,34.56,0,0,1-1.79-3Z"/>
        <path class="b" d="M28.6,83.8l-2.2.67c.36,1.17.78,2.34,1.25,3.48l2.12-.88C29.33,86,28.93,84.9,28.6,83.8Z"/>
        <path class="b" d="M33.37,97.43c.78.95,1.62,1.87,2.49,2.74l1.62-1.63c-.82-.82-1.61-1.68-2.34-2.57Z"/>
        <path class="b" d="M62.5,38c1.12,0,2.25.06,3.36.16l.22-2.29c-1.18-.11-2.38-.17-3.58-.17v-.57a38.36,38.36,0,0,0-37.78,32,3.82,3.82,0,0,0-1.5.93A3.74,3.74,0,1,0,28.51,68a3.32,3.32,0,0,0-.38-.3A34.91,34.91,0,0,1,62.5,38.58Z"/>
        <path class="b" d="M101.68,73.53a3.74,3.74,0,0,0-5.19,5.38c.12.11.26.2.39.3a34.92,34.92,0,0,1-34.38,29.1v.57c-1.15,0-2.3,0-3.44-.16L58.84,111c1.21.11,2.44.17,3.66.17v.58a38.38,38.38,0,0,0,37.79-32,3.63,3.63,0,0,0,1.49-.93A3.73,3.73,0,0,0,101.68,73.53Z"/>
      </g>
    </g>
  </g>
</svg>
