<svg xmlns="http://www.w3.org/2000/svg" width="200" height="200" viewBox="0 0 200 200"><title>hero-cap2</title><path d="M100,199a99,99,0,1,1,99-99A99.11,99.11,0,0,1,100,199Z" style="fill:#fff"/><path d="M100,2A98,98,0,1,1,2,100,98.11,98.11,0,0,1,100,2m0-2A100,100,0,1,0,200,100,100,100,0,0,0,100,0Z" style="fill:#323c64"/><circle cx="100" cy="100" r="75.7" style="fill:#1ccfc9"/><circle cx="100" cy="100" r="75.7" style="fill:none;stroke:#323c64;stroke-miterlimit:10;stroke-width:2px;stroke-dasharray:7.432085037231445,7.432085037231445"/><path d="M24.3,100A75.7,75.7,0,0,1,100,24.3" style="fill:none;stroke:#323c64;stroke-miterlimit:10;stroke-width:3px"/><path d="M175.7,100A75.7,75.7,0,0,1,100,175.7" style="fill:none;stroke:#323c64;stroke-miterlimit:10;stroke-width:3px"/><path d="M27.08,36.26a4.59,4.59,0,1,1,3.3-1.4A4.57,4.57,0,0,1,27.08,36.26Z" style="fill:#fff"/><path d="M27.08,28.07h0a3.59,3.59,0,1,1-2.59,1.1,3.57,3.57,0,0,1,2.59-1.1m0-2A5.59,5.59,0,1,0,31,27.64a5.58,5.58,0,0,0-3.88-1.57Z" style="fill:#323c64"/><path d="M170.55,174.73a4.59,4.59,0,1,1,3.31-1.4A4.57,4.57,0,0,1,170.55,174.73Z" style="fill:#fff"/><path d="M170.55,166.54h0a3.59,3.59,0,1,1-2.59,1.1,3.57,3.57,0,0,1,2.59-1.1m0-2a5.59,5.59,0,1,0,3.88,1.57,5.58,5.58,0,0,0-3.88-1.57Z" style="fill:#323c64"/><circle cx="170.26" cy="29.57" r="5.59" transform="translate(30.75 131.54) rotate(-46.02)" style="fill:#323c64"/><circle cx="31.79" cy="173.04" r="5.59" transform="translate(-114.79 75.75) rotate(-46.02)" style="fill:#323c64"/><circle cx="24.3" cy="96.99" r="4" transform="translate(-62.36 47.12) rotate(-46.02)" style="fill:#323c64"/><circle cx="175.7" cy="102.98" r="4" transform="translate(-20.41 157.89) rotate(-46.02)" style="fill:#323c64"/><path d="M100,136.47c-4.39,0-5.17-1.13-5.27-1.34a.74.74,0,0,0-.5-.85c-5.16-1.64-15.4-3.94-22-3.94s-14.87,3-19.28,4.75a.82.82,0,0,1-1.13-.76V76.16a1.85,1.85,0,0,1,.54-1.32,7,7,0,0,1,3.56-2,.74.74,0,0,0,.6-.72V67.91a1.36,1.36,0,0,1,.93-1.27,55.15,55.15,0,0,1,16.28-2.71c10.08,0,18.76,3.07,25.8,9.12a.74.74,0,0,0,1,0c7-6,15.73-9.12,25.8-9.12a55.16,55.16,0,0,1,16.28,2.72,1.36,1.36,0,0,1,.93,1.27V72.1a.74.74,0,0,0,.6.72,7,7,0,0,1,3.56,2,1.85,1.85,0,0,1,.54,1.32v58.18a.81.81,0,0,1-.25.59.81.81,0,0,1-.88.17c-4.41-1.77-12.78-4.75-19.28-4.75s-16.86,2.3-22,3.94a.74.74,0,0,0-.5.85C105.17,135.34,104.39,136.47,100,136.47Z" style="fill:#ff931e;stroke:#323c64;stroke-linecap:round;stroke-linejoin:round;stroke-width:2px"/><path d="M70.25,125.29c12.15,0,24.1,4.28,28.68,6.12a.78.78,0,0,0,1.07-.72v-57a.78.78,0,0,0-.28-.6,40.05,40.05,0,0,0-12.38-7A43.48,43.48,0,0,0,72.7,63.53a53.29,53.29,0,0,0-16.31,2.58.78.78,0,0,0-.53.74v60a.78.78,0,0,0,1.07.72A35.68,35.68,0,0,1,70.25,125.29Z" style="fill:#fff;stroke:#323c64;stroke-linecap:round;stroke-linejoin:round;stroke-width:2px"/><path d="M127.3,63.53A43.48,43.48,0,0,0,112.66,66a40.06,40.06,0,0,0-12.38,7,.78.78,0,0,0-.28.6v57a.78.78,0,0,0,1.07.72c4.58-1.84,16.54-6.12,28.68-6.12a35.68,35.68,0,0,1,13.31,2.3.78.78,0,0,0,1.07-.72v-60a.78.78,0,0,0-.53-.74A53.3,53.3,0,0,0,127.3,63.53Z" style="fill:#fff;stroke:#323c64;stroke-linecap:round;stroke-linejoin:round;stroke-width:2px"/><path d="M110,67.72V90.15l5.43-5.43,5,3.41V64.33A50.69,50.69,0,0,0,110,67.72Z" style="fill:#f42534;stroke:#323c64;stroke-linecap:round;stroke-linejoin:round;stroke-width:2px"/><path d="M65.69,86.28s10.05-3.5,26,1.61" style="fill:none;stroke:#323c64;stroke-linecap:round;stroke-linejoin:round;stroke-width:2px"/><path d="M65.69,96.81s10.05-3.5,26,1.61" style="fill:none;stroke:#323c64;stroke-linecap:round;stroke-linejoin:round;stroke-width:2px"/><path d="M65.69,107.34s10.05-3.5,26,1.61" style="fill:none;stroke:#323c64;stroke-linecap:round;stroke-linejoin:round;stroke-width:2px"/><path d="M108,102.91s12-5.59,28.25-1.9l0,9.5a57.4,57.4,0,0,0-28.25,1.9Z" style="fill:#3fa9f5;stroke:#323c64;stroke-linecap:round;stroke-linejoin:round;stroke-width:2px"/></svg>