<svg xmlns="http://www.w3.org/2000/svg" width="200" height="200" viewBox="0 0 200 200">
  <title>hero-cap5</title>
  <g>
    <g>
      <path d="M100,199a99,99,0,1,1,99-99A99.11,99.11,0,0,1,100,199Z" style="fill: #fff"/>
      <path d="M100,2A98,98,0,1,1,2,100,98.11,98.11,0,0,1,100,2m0-2A100,100,0,1,0,200,100,100,100,0,0,0,100,0Z" style="fill: #323c64"/>
    </g>
    <g>
      <circle cx="100" cy="100" r="75.7" style="fill: #1ccfc9"/>
      <circle cx="100" cy="100" r="75.7" style="fill: none;stroke: #323c64;stroke-miterlimit: 10;stroke-width: 2px;stroke-dasharray: 7.432085037231445,7.432085037231445"/>
    </g>
    <path d="M24.3,100A75.7,75.7,0,0,1,100,24.3" style="fill: none;stroke: #323c64;stroke-miterlimit: 10;stroke-width: 3px"/>
    <path d="M175.7,100A75.7,75.7,0,0,1,100,175.7" style="fill: none;stroke: #323c64;stroke-miterlimit: 10;stroke-width: 3px"/>
    <g>
      <path d="M27.08,36.26a4.59,4.59,0,1,1,3.3-1.4A4.57,4.57,0,0,1,27.08,36.26Z" style="fill: #fff"/>
      <path d="M27.08,28.07h0a3.59,3.59,0,1,1-2.59,1.1,3.58,3.58,0,0,1,2.59-1.1m0-2A5.59,5.59,0,1,0,31,27.64a5.58,5.58,0,0,0-3.88-1.57Z" style="fill: #323c64"/>
    </g>
    <g>
      <path d="M170.55,174.73a4.59,4.59,0,1,1,3.3-1.4A4.57,4.57,0,0,1,170.55,174.73Z" style="fill: #fff"/>
      <path d="M170.55,166.54h0a3.59,3.59,0,1,1-2.59,1.1,3.58,3.58,0,0,1,2.59-1.1m0-2a5.59,5.59,0,1,0,3.88,1.57,5.58,5.58,0,0,0-3.88-1.57Z" style="fill: #323c64"/>
    </g>
    <circle cx="170.26" cy="29.57" r="5.59" transform="translate(30.75 131.54) rotate(-46.02)" style="fill: #323c64"/>
    <circle cx="31.79" cy="173.04" r="5.59" transform="translate(-114.79 75.75) rotate(-46.02)" style="fill: #323c64"/>
    <circle cx="24.3" cy="96.99" r="4" transform="translate(-62.36 47.12) rotate(-46.02)" style="fill: #323c64"/>
    <circle cx="175.7" cy="102.98" r="4" transform="translate(-20.41 157.89) rotate(-46.02)" style="fill: #323c64"/>
    <g>
      <g>
        <path d="M51.64,129.18h96.72a0,0,0,0,1,0,0v2a6.42,6.42,0,0,1-6.42,6.42H58.05a6.42,6.42,0,0,1-6.42-6.42v-2a0,0,0,0,1,0,0Z" style="fill: #dfe2e2;stroke: #323c64;stroke-linecap: round;stroke-linejoin: round;stroke-width: 2px"/>
        <path d="M89.77,129.18h20.46a0,0,0,0,1,0,0v2.32a1.89,1.89,0,0,1-1.89,1.89H91.67a1.89,1.89,0,0,1-1.89-1.89v-2.32A0,0,0,0,1,89.77,129.18Z" style="fill: #f42534;stroke: #323c64;stroke-linecap: round;stroke-linejoin: round;stroke-width: 2px"/>
        <path d="M65,75.23h70a4.52,4.52,0,0,1,4.52,4.52v49.44a0,0,0,0,1,0,0h-79a0,0,0,0,1,0,0V79.74A4.52,4.52,0,0,1,65,75.23Z" style="fill: #ff931e;stroke: #323c64;stroke-linecap: round;stroke-linejoin: round;stroke-width: 2px"/>
        <rect x="66.94" y="81.66" width="66.29" height="41.09" style="fill: #fff;stroke: #323c64;stroke-linecap: round;stroke-linejoin: round;stroke-width: 2px"/>
      </g>
      <rect x="78.22" y="99.09" width="43.57" height="10.35" style="fill: #dfe2e2;stroke: #323c64;stroke-linecap: round;stroke-linejoin: round;stroke-width: 2px"/>
      <path d="M95.72,60.39H59.32a5.47,5.47,0,0,0-5.47,5.47V88.25a5.47,5.47,0,0,0,5.47,5.47H87.16l8.57,8.86V93.71h0a5.47,5.47,0,0,0,5.47-5.47V65.85A5.47,5.47,0,0,0,95.72,60.39Z" style="fill: #3fa9f5;stroke: #323c64;stroke-linecap: round;stroke-linejoin: round;stroke-width: 2px"/>
      <g>
        <line x1="65.48" y1="80.9" x2="80.16" y2="80.9" style="fill: none;stroke: #323c64;stroke-linecap: round;stroke-linejoin: round;stroke-width: 2px"/>
        <line x1="65.48" y1="71.22" x2="91.98" y2="71.22" style="fill: none;stroke: #323c64;stroke-linecap: round;stroke-linejoin: round;stroke-width: 2px"/>
      </g>
    </g>
  </g>
</svg>
