<svg xmlns="http://www.w3.org/2000/svg" width="200" height="200" viewBox="0 0 200 200"><title>hero-cap1</title><path d="M100,199a99,99,0,1,1,99-99A99.11,99.11,0,0,1,100,199Z" style="fill:#fff"/><path d="M100,2A98,98,0,1,1,2,100,98.11,98.11,0,0,1,100,2m0-2A100,100,0,1,0,200,100,100,100,0,0,0,100,0Z" style="fill:#323c64"/><circle cx="100" cy="100" r="75.7" style="fill:#1ccfc9"/><circle cx="100" cy="100" r="75.7" style="fill:none;stroke:#323c64;stroke-miterlimit:10;stroke-width:2px;stroke-dasharray:7.432085037231445,7.432085037231445"/><path d="M24.3,100A75.7,75.7,0,0,1,100,24.3" style="fill:none;stroke:#323c64;stroke-miterlimit:10;stroke-width:3px"/><path d="M175.7,100A75.7,75.7,0,0,1,100,175.7" style="fill:none;stroke:#323c64;stroke-miterlimit:10;stroke-width:3px"/><path d="M27.08,36.26a4.59,4.59,0,1,1,3.31-1.4A4.57,4.57,0,0,1,27.08,36.26Z" style="fill:#fff"/><path d="M27.08,28.07h0a3.59,3.59,0,1,1-2.59,1.1,3.57,3.57,0,0,1,2.59-1.1m0-2A5.59,5.59,0,1,0,31,27.64a5.58,5.58,0,0,0-3.88-1.57Z" style="fill:#323c64"/><path d="M170.55,174.73a4.59,4.59,0,1,1,3.31-1.4A4.57,4.57,0,0,1,170.55,174.73Z" style="fill:#fff"/><path d="M170.55,166.54h0a3.59,3.59,0,1,1-2.59,1.1,3.57,3.57,0,0,1,2.59-1.1m0-2a5.59,5.59,0,1,0,3.88,1.57,5.58,5.58,0,0,0-3.88-1.57Z" style="fill:#323c64"/><circle cx="170.26" cy="29.57" r="5.59" transform="translate(30.75 131.54) rotate(-46.02)" style="fill:#323c64"/><circle cx="31.79" cy="173.04" r="5.59" transform="translate(-114.79 75.75) rotate(-46.02)" style="fill:#323c64"/><circle cx="24.3" cy="96.99" r="4" transform="translate(-62.36 47.12) rotate(-46.02)" style="fill:#323c64"/><circle cx="175.7" cy="102.98" r="4" transform="translate(-20.41 157.89) rotate(-46.02)" style="fill:#323c64"/><path d="M73.7,52.09l45.48-.1,14,14v80.9H67.61V58.2A6.11,6.11,0,0,1,73.7,52.09Z" style="fill:#fff;stroke:#323c64;stroke-linecap:round;stroke-linejoin:round;stroke-width:2px"/><polygon points="133.23 66.39 119.19 51.99 119.12 66.39 133.23 66.39" style="fill:#dfe2e2;stroke:#323c64;stroke-linecap:round;stroke-linejoin:round;stroke-width:2px"/><rect x="124.1" y="80.42" width="6.04" height="48.45" transform="translate(204.68 249.88) rotate(-157.57)" style="fill:#ff931e;stroke:#323c64;stroke-linecap:round;stroke-linejoin:round;stroke-width:2px"/><polygon points="120.67 128.19 115.39 133.06 115.08 125.89 120.67 128.19" style="fill:#323c64;stroke:#323c64;stroke-linecap:round;stroke-linejoin:round;stroke-width:2px"/><polyline points="136.9 87.41 128.65 83.92 124.21 94.42" style="fill:none;stroke:#323c64;stroke-linecap:round;stroke-linejoin:round;stroke-width:2px"/><path d="M137,78.07h.71a1.27,1.27,0,0,1,1.27,1.27V83a0,0,0,0,1,0,0h-3.26a0,0,0,0,1,0,0V79.34A1.27,1.27,0,0,1,137,78.07Z" transform="translate(42.19 -47.11) rotate(22.91)" style="fill:#323c64;stroke:#323c64;stroke-miterlimit:10"/><line x1="76.51" y1="73.79" x2="115.47" y2="73.79" style="fill:none;stroke:#323c64;stroke-linecap:round;stroke-linejoin:round;stroke-width:2px"/><line x1="76.51" y1="83.84" x2="115.47" y2="83.84" style="fill:none;stroke:#323c64;stroke-linecap:round;stroke-linejoin:round;stroke-width:2px"/><line x1="76.51" y1="93.89" x2="97.97" y2="93.89" style="fill:none;stroke:#323c64;stroke-linecap:round;stroke-linejoin:round;stroke-width:2px"/><line x1="103.15" y1="133.06" x2="110.2" y2="133.06" style="fill:none;stroke:#323c64;stroke-linecap:round;stroke-linejoin:round;stroke-width:2px"/><line x1="76.51" y1="133.06" x2="95.79" y2="133.06" style="fill:none;stroke:#323c64;stroke-linecap:round;stroke-linejoin:round;stroke-width:2px"/><circle cx="82.98" cy="112.74" r="6.47" style="fill:#3fa9f5;stroke:#323c64;stroke-linecap:round;stroke-linejoin:round;stroke-width:2px"/><polygon points="97.86 119.2 104 108.34 110.2 119.2 97.86 119.2" style="fill:#f42534;stroke:#323c64;stroke-linecap:round;stroke-linejoin:round;stroke-width:2px"/></svg>