<svg xmlns="http://www.w3.org/2000/svg" width="200" height="200" viewBox="0 0 200 200"><title>hero-cap4</title><path d="M100,199a99,99,0,1,1,99-99A99.11,99.11,0,0,1,100,199Z" style="fill:#fff"/><path d="M100,2A98,98,0,1,1,2,100,98.11,98.11,0,0,1,100,2m0-2A100,100,0,1,0,200,100,100,100,0,0,0,100,0Z" style="fill:#323c64"/><circle cx="100" cy="100" r="75.7" style="fill:#1ccfc9"/><circle cx="100" cy="100" r="75.7" style="fill:none;stroke:#323c64;stroke-miterlimit:10;stroke-width:2px;stroke-dasharray:7.432085037231445,7.432085037231445"/><path d="M24.3,100A75.7,75.7,0,0,1,100,24.3" style="fill:none;stroke:#323c64;stroke-miterlimit:10;stroke-width:3px"/><path d="M175.7,100A75.7,75.7,0,0,1,100,175.7" style="fill:none;stroke:#323c64;stroke-miterlimit:10;stroke-width:3px"/><path d="M27.08,36.26a4.59,4.59,0,1,1,3.31-1.4A4.57,4.57,0,0,1,27.08,36.26Z" style="fill:#fff"/><path d="M27.08,28.07h0a3.59,3.59,0,1,1-2.59,1.1,3.58,3.58,0,0,1,2.59-1.1m0-2A5.59,5.59,0,1,0,31,27.64a5.58,5.58,0,0,0-3.88-1.57Z" style="fill:#323c64"/><path d="M170.55,174.73a4.59,4.59,0,1,1,3.31-1.4A4.57,4.57,0,0,1,170.55,174.73Z" style="fill:#fff"/><path d="M170.55,166.54h0a3.59,3.59,0,1,1-2.59,1.1,3.58,3.58,0,0,1,2.59-1.1m0-2a5.59,5.59,0,1,0,3.88,1.57,5.58,5.58,0,0,0-3.88-1.57Z" style="fill:#323c64"/><circle cx="170.26" cy="29.57" r="5.59" transform="translate(30.75 131.54) rotate(-46.02)" style="fill:#323c64"/><circle cx="31.79" cy="173.04" r="5.59" transform="translate(-114.79 75.75) rotate(-46.02)" style="fill:#323c64"/><circle cx="24.3" cy="96.99" r="4" transform="translate(-62.36 47.12) rotate(-46.02)" style="fill:#323c64"/><circle cx="175.7" cy="102.98" r="4" transform="translate(-20.41 157.89) rotate(-46.02)" style="fill:#323c64"/><path d="M140.33,89.76a10.89,10.89,0,0,0-12.1,3.06.75.75,0,0,1-1.32-.39,10.89,10.89,0,0,0-8.48-9.16c-4.7-.83-11.35-.46-12.79,10s12,33,12,33,23.46-11.66,27.94-21.18S144.73,91.63,140.33,89.76Z" style="fill:#f42534;stroke:#323c64;stroke-linecap:round;stroke-linejoin:round;stroke-width:2px"/><path d="M84.56,58.07S97.16,55.42,97.16,74s-11.28,29.86-19.24,33.18" style="fill:none;stroke:#323c64;stroke-linecap:round;stroke-linejoin:round;stroke-width:2px"/><path d="M67.3,58.07S54.7,55.42,54.7,74,66,103.86,73.94,107.18" style="fill:none;stroke:#323c64;stroke-linecap:round;stroke-linejoin:round;stroke-width:2px"/><path d="M91.86,94.43c-4,6.62-9.4,10.91-13.81,12.74" style="fill:none;stroke:#323c64;stroke-linecap:round;stroke-linejoin:round;stroke-width:2px"/><path d="M60.13,94.43c4,6.62,9.4,10.91,13.81,12.74" style="fill:none;stroke:#323c64;stroke-linecap:round;stroke-linejoin:round;stroke-width:2px"/><path d="M76.59,114.47s-.76,31.2,19.24,31.28c18.61.07,25.81-31,25.81-31" style="fill:none;stroke:#323c64;stroke-linecap:round;stroke-linejoin:round;stroke-width:2px"/><circle cx="122.76" cy="106.73" r="8.82" style="fill:#fff;stroke:#323c64;stroke-linecap:round;stroke-linejoin:round;stroke-width:2px"/><circle cx="122.76" cy="106.73" r="3.31" style="fill:#3fa9f5;stroke:#323c64;stroke-linecap:round;stroke-linejoin:round;stroke-width:2px"/><path d="M86.22,56.25l-2.3-1.61a2.12,2.12,0,0,0-3.34,1.74v3a2.12,2.12,0,0,0,3.21,1.82l2.3-1.38A2.12,2.12,0,0,0,86.22,56.25Z" style="fill:#323c64"/><path d="M65.64,56.25l2.3-1.61a2.12,2.12,0,0,1,3.34,1.74v3a2.12,2.12,0,0,1-3.21,1.82l-2.3-1.38A2.12,2.12,0,0,1,65.64,56.25Z" style="fill:#323c64"/><rect x="71.3" y="102.24" width="9.93" height="14.51" rx="4.25" ry="4.25" style="fill:#ff931e;stroke:#323c64;stroke-linecap:round;stroke-linejoin:round;stroke-width:2px"/></svg>