<svg xmlns="http://www.w3.org/2000/svg" width="200" height="200" viewBox="0 0 200 200"><title>hero-cap3</title><path d="M100,199a99,99,0,1,1,99-99A99.11,99.11,0,0,1,100,199Z" style="fill:#fff"/><path d="M100,2A98,98,0,1,1,2,100,98.11,98.11,0,0,1,100,2m0-2A100,100,0,1,0,200,100,100,100,0,0,0,100,0Z" style="fill:#323c64"/><circle cx="100" cy="100" r="75.7" style="fill:#1ccfc9"/><circle cx="100" cy="100" r="75.7" style="fill:none;stroke:#323c64;stroke-miterlimit:10;stroke-width:2px;stroke-dasharray:7.432085037231445,7.432085037231445"/><path d="M61.33,120.87H72.26a12.25,12.25,0,0,1,12.25,12.25v0a0,0,0,0,1,0,0H49.08a0,0,0,0,1,0,0v0A12.25,12.25,0,0,1,61.33,120.87Z" transform="translate(133.59 253.99) rotate(-180)" style="fill:#3fa9f5;stroke:#323c64;stroke-linecap:round;stroke-linejoin:round;stroke-width:2px"/><polyline points="49.22 121.15 66.8 78.97 84.22 120.85" style="fill:none;stroke:#323c64;stroke-linecap:round;stroke-linejoin:round;stroke-width:2px"/><path d="M127.74,120.87h10.94a12.25,12.25,0,0,1,12.25,12.25v0a0,0,0,0,1,0,0H115.49a0,0,0,0,1,0,0v0a12.25,12.25,0,0,1,12.25-12.25Z" transform="translate(266.41 253.99) rotate(-180)" style="fill:#ff931e;stroke:#323c64;stroke-linecap:round;stroke-linejoin:round;stroke-width:2px"/><polyline points="115.63 121.15 133.21 78.97 150.63 120.85" style="fill:none;stroke:#323c64;stroke-linecap:round;stroke-linejoin:round;stroke-width:2px"/><path d="M100.73,50.69a9.93,9.93,0,0,0-3.89,19.06v69.84h7.78V69.76a9.93,9.93,0,0,0-3.89-19.06Zm0,13.79a3.86,3.86,0,1,1,3.86-3.86A3.86,3.86,0,0,1,100.73,64.48Z" style="fill:#fff;stroke:#323c64;stroke-linecap:round;stroke-linejoin:round;stroke-width:2px"/><path d="M63,75.89H138.5a2,2,0,0,1,2,2v2.17a0,0,0,0,1,0,0H60.94a0,0,0,0,1,0,0V77.91A2,2,0,0,1,63,75.89Z" style="fill:#f42534;stroke:#323c64;stroke-linecap:round;stroke-linejoin:round;stroke-width:2px"/><path d="M100.73,133.62h0a14.05,14.05,0,0,1,14.05,14.05v1.63a0,0,0,0,1,0,0H86.68a0,0,0,0,1,0,0v-1.63A14.05,14.05,0,0,1,100.73,133.62Z" style="fill:#dfe2e2;stroke:#323c64;stroke-linecap:round;stroke-linejoin:round;stroke-width:2px"/><path d="M24.3,100A75.7,75.7,0,0,1,100,24.3" style="fill:none;stroke:#323c64;stroke-miterlimit:10;stroke-width:3px"/><path d="M175.7,100A75.7,75.7,0,0,1,100,175.7" style="fill:none;stroke:#323c64;stroke-miterlimit:10;stroke-width:3px"/><path d="M27.08,36.26a4.59,4.59,0,1,1,3.31-1.4A4.57,4.57,0,0,1,27.08,36.26Z" style="fill:#fff"/><path d="M27.08,28.07h0a3.59,3.59,0,1,1-2.59,1.1,3.57,3.57,0,0,1,2.59-1.1m0-2A5.59,5.59,0,1,0,31,27.64a5.58,5.58,0,0,0-3.88-1.57Z" style="fill:#323c64"/><path d="M170.55,174.73a4.59,4.59,0,1,1,3.3-1.4A4.57,4.57,0,0,1,170.55,174.73Z" style="fill:#fff"/><path d="M170.55,166.54h0a3.59,3.59,0,1,1-2.59,1.1,3.57,3.57,0,0,1,2.59-1.1m0-2a5.59,5.59,0,1,0,3.88,1.57,5.58,5.58,0,0,0-3.88-1.57Z" style="fill:#323c64"/><circle cx="170.26" cy="29.57" r="5.59" transform="translate(30.75 131.54) rotate(-46.02)" style="fill:#323c64"/><circle cx="31.79" cy="173.04" r="5.59" transform="translate(-114.79 75.75) rotate(-46.02)" style="fill:#323c64"/><circle cx="24.3" cy="96.99" r="4" transform="translate(-62.36 47.12) rotate(-46.02)" style="fill:#323c64"/><circle cx="175.7" cy="102.98" r="4" transform="translate(-20.41 157.89) rotate(-46.02)" style="fill:#323c64"/></svg>