<svg xmlns="http://www.w3.org/2000/svg" width="200" height="200" viewBox="0 0 200 200"><title>logo-big</title><path d="M100,199a99,99,0,1,1,99-99A99.11,99.11,0,0,1,100,199Z" style="fill:#fff"/><path d="M100,2A98,98,0,1,1,2,100,98.11,98.11,0,0,1,100,2m0-2A100,100,0,1,0,200,100,100,100,0,0,0,100,0Z" style="fill:#323c64"/><circle cx="100" cy="100" r="75.7" style="fill:#1ccfc9"/><circle cx="100" cy="100" r="75.7" style="fill:none;stroke:#323c64;stroke-miterlimit:10;stroke-width:2px;stroke-dasharray:7.432085037231445,7.432085037231445"/><path d="M24.3,100A75.7,75.7,0,0,1,100,24.3" style="fill:none;stroke:#323c64;stroke-miterlimit:10;stroke-width:3px"/><path d="M175.7,100A75.7,75.7,0,0,1,100,175.7" style="fill:none;stroke:#323c64;stroke-miterlimit:10;stroke-width:3px"/><path d="M27.08,36.26a4.59,4.59,0,1,1,3.31-1.4A4.57,4.57,0,0,1,27.08,36.26Z" style="fill:#fff"/><path d="M27.08,28.07h0a3.59,3.59,0,1,1-2.59,1.1,3.57,3.57,0,0,1,2.59-1.1m0-2A5.59,5.59,0,1,0,31,27.64a5.58,5.58,0,0,0-3.88-1.57Z" style="fill:#323c64"/><path d="M170.55,174.73a4.59,4.59,0,1,1,3.31-1.4A4.57,4.57,0,0,1,170.55,174.73Z" style="fill:#fff"/><path d="M170.55,166.54h0a3.59,3.59,0,1,1-2.59,1.1,3.57,3.57,0,0,1,2.59-1.1m0-2a5.59,5.59,0,1,0,3.88,1.57,5.58,5.58,0,0,0-3.88-1.57Z" style="fill:#323c64"/><circle cx="170.26" cy="29.57" r="5.59" transform="translate(30.75 131.54) rotate(-46.02)" style="fill:#323c64"/><circle cx="31.79" cy="173.04" r="5.59" transform="translate(-114.79 75.75) rotate(-46.02)" style="fill:#323c64"/><path d="M57,67.63H102.8V79.9H86.87v58.43h-14V79.9H57Z" style="fill:#323c64"/><path d="M131,96.45v17.32q0,4.93.26,7.86a12,12,0,0,0,1.08,4.47,3.7,3.7,0,0,0,2.41,2,17.67,17.67,0,0,0,4.26.41v8.43a13.18,13.18,0,0,1-1.75.72,12.2,12.2,0,0,1-4.11.72,18.25,18.25,0,0,1-4.52-.67,12.36,12.36,0,0,1-4.88-2.62,16,16,0,0,1-4-5.34,20.62,20.62,0,0,1-1.64-8.94V96.45H110V85.3h8.12V67.63H131V85.3h11.3l-1.64,11.14Z" style="fill:#323c64"/><circle cx="24.3" cy="96.99" r="4" transform="translate(-62.36 47.12) rotate(-46.02)" style="fill:#323c64"/><circle cx="175.7" cy="102.98" r="4" transform="translate(-20.41 157.89) rotate(-46.02)" style="fill:#323c64"/></svg>