<svg xmlns="http://www.w3.org/2000/svg" width="25" height="25" viewBox="0 0 25 25">
  <title>plus</title>
  <g>
    <g>
      <path d="M12.5,24A11.5,11.5,0,1,1,24,12.5,11.51,11.51,0,0,1,12.5,24Z" style="fill: #1ccfc9"/>
      <path d="M12.5,2A10.5,10.5,0,1,1,2,12.5,10.51,10.51,0,0,1,12.5,2m0-2A12.5,12.5,0,1,0,25,12.5,12.5,12.5,0,0,0,12.5,0Z" style="fill: #323c64"/>
    </g>
    <path d="M18.33,13.39H13.81a.42.42,0,0,0-.42.42v4.51a.42.42,0,0,1-.42.42H12a.42.42,0,0,1-.42-.42V13.81a.42.42,0,0,0-.42-.42H6.67A.42.42,0,0,1,6.25,13V12a.42.42,0,0,1,.42-.42h4.51a.42.42,0,0,0,.42-.42V6.67A.42.42,0,0,1,12,6.25H13a.42.42,0,0,1,.42.42v4.51a.42.42,0,0,0,.42.42h4.51a.42.42,0,0,1,.42.42V13A.42.42,0,0,1,18.33,13.39Z" style="fill: #323c64"/>
  </g>
</svg>
