<svg xmlns="http://www.w3.org/2000/svg" width="87" height="87" viewBox="0 0 87 87">
  <title>recuerde</title>
  <g>
    <circle cx="43.5" cy="43.5" r="42.5" style="fill: #1ccfc9;stroke: #323c64;stroke-miterlimit: 10;stroke-width: 2px"/>
    <g>
      <path d="M58.19,45a0,0,0,0,1,0,0V14.53a4.22,4.22,0,0,0-4.85-4.16,4.32,4.32,0,0,0-3.57,4.32V37.09a4.21,4.21,0,0,0-8.39-.51,0,0,0,0,1-.06,0,4.21,4.21,0,0,0-8.36,0,0,0,0,0,1-.06,0,4.22,4.22,0,0,0-4.65-3.67,4.46,4.46,0,0,0-3.74,4.34V47s0,.05,0,.08l.06,12.82A16.81,16.81,0,0,0,41.32,76.68h4.4A16.84,16.84,0,0,0,62.5,59.89V47.25A1.8,1.8,0,0,0,61,45.47Z" style="fill: #fff"/>
      <rect x="24.5" y="32.89" width="8.42" height="18.36" rx="4.21" ry="4.21" style="fill: none;stroke: #323c64;stroke-linecap: round;stroke-linejoin: round;stroke-width: 1.5px"/>
      <rect x="32.91" y="32.89" width="8.42" height="18.36" rx="4.21" ry="4.21" style="fill: none;stroke: #323c64;stroke-linecap: round;stroke-linejoin: round;stroke-width: 1.5px"/>
      <path d="M47.73,50.63a4.17,4.17,0,0,1-2.19.62h0A4.22,4.22,0,0,1,41.33,47V37.09a4.22,4.22,0,0,1,4.21-4.21h0a4.22,4.22,0,0,1,4.21,4.21v6" style="fill: none;stroke: #323c64;stroke-linecap: round;stroke-linejoin: round;stroke-width: 1.5px"/>
      <path d="M24.5,46.3l.06,13.62A16.81,16.81,0,0,0,41.32,76.68h4.43A16.81,16.81,0,0,0,62.5,59.93V47.83a2.5,2.5,0,0,0-2.06-2.46L49.94,43.5a3.7,3.7,0,0,0-4.23,3.06h0c-.32,2,1.13,3.51,3.06,4.23l8,2.54" style="fill: none;stroke: #323c64;stroke-linecap: round;stroke-linejoin: round;stroke-width: 1.5px"/>
      <path d="M49.75,42.81V14.53A4.22,4.22,0,0,1,54,10.32h0a4.22,4.22,0,0,1,4.21,4.21V44.44" style="fill: none;stroke: #323c64;stroke-linecap: round;stroke-linejoin: round;stroke-width: 1.5px"/>
      <polygon points="63.14 29.59 49.75 29.59 49.75 20.71 63.14 20.71 59.52 25.15 63.14 29.59" style="fill: #fff;stroke: #323c64;stroke-linecap: round;stroke-linejoin: round;stroke-width: 1.5px"/>
      <line x1="49.75" y1="25.15" x2="54.99" y2="25.15" style="fill: none;stroke: #323c64;stroke-linecap: round;stroke-linejoin: round;stroke-width: 1.5px"/>
    </g>
  </g>
</svg>
